# xmcd
#
# Track frame offsets:
# 150
# 22233
# 40459
# 65129
# 83307
# 109308
# 128394
# 147422
# 165279
# 188887
# 208677
# 239394
# 250846
#
# Disc length: 3667 seconds
#
#
# Revision: 0
# Processed by: cddbd v1.5.2PL0 Copyright (c) Steve Scherf et al.
# Submitted via: FreeRIP 2.52 
#
DISCID=b30e510d
DTITLE=Travellin' Brothers - A Blues Experience
DYEAR=2004
DGENRE=Blues
TTITLE0=Redhead's Song
TTITLE1=Cold shot
TTITLE2=I Like it
TTITLE3=Good luck baby
TTITLE4=Hoochie Coochie man
TTITLE5=I'm gonna love you
TTITLE6=Leave my girl alone
TTITLE7=Ask me no questions
TTITLE8=Miles and miles away
TTITLE9=Long way down
TTITLE10=Since I met you baby
TTITLE11=Life by the drop
TTITLE12=Boom boom
EXTD=
EXTT0=
EXTT1=
EXTT2=
EXTT3=
EXTT4=
EXTT5=
EXTT6=
EXTT7=
EXTT8=
EXTT9=
EXTT10=
EXTT11=
EXTT12=
PLAYORDER=
